<svg viewBox="-22 0 512 512.00111" xmlns="http://www.w3.org/2000/svg"><path d="m454.796875 74.199219-336.984375 11.519531 8.066406 322.007812-1.730468 20.160157-34.558594 17.855469s-37.445313 0-39.171875 0c-1.730469 0-10.945313-15.550782-10.945313-15.550782l-1.730468-14.402344-18.429688 16.703126 1.726562 20.164062 24.769532 10.945312 72.582031-1.152343 301.265625 2.300781 39.746094-3.453125.578125-32.257813-8.640625-175.691406 2.878906-110.023437zm0 0" fill="#4bb8ff"/><path d="m348.761719 5.097656-129.128907 6.40625 185.808594 175.453125 3.449219-119.761719.492187-60.128906zm21.890625 85.742188c-2.515625 3.917968-7.796875 4.722656-11.222656 1.445312-7.65625-7.320312-15.058594-14.882812-22.707032-22.203125-3.957031-3.78125-8.070312-7.425781-12.464844-10.695312-3.871093-2.878907-8.050781-5.449219-11.054687-9.292969-3.113281-3.984375-2.320313-9.785156 3.011719-11.402344 4.226562-1.28125 8.554687-1.117187 12.894531-.652344 4.367187.464844 8.722656.40625 13.109375.402344 4.078125-.007812 8.648438-.078125 13.046875.503906 1.613281-.328124 3.140625-.652343 4.5-1.019531 4.003906-1.085937 8.246094 1.351563 9.367187 5.320313 2.339844 8.265625 2.824219 16.988281 3.949219 25.484375.96875 7.324219 1.761719 15.578125-2.429687 22.109375zm0 0" fill="#cbe580"/><path d="m118.390625 462.449219 297.808594-109.449219 17.28125 47.8125-298.960938 107.71875zm0 0" fill="#ffb573"/><path d="m40.625 438.253906c-.695312-17.113281 20.285156-13.761718 30.5-11.496094 4.53125 1.003907 7.503906 4.964844 10.355469.246094 2.050781-3.390625 1.332031-17.546875-.496094-21.535156 11.398437.136719 31.625-7.273438 39.421875 3.621094 7.769531 10.863281 2.097656 18.707031-7.945312 24.652344-14.929688 8.839843-28.183594 16.363281-46.289063 17.230468-4.824219.226563-12.015625.996094-16.488281-1.605468-4.195313-2.4375-6.957032-10.785157-9.058594-11.113282zm0 0" fill="#4bb8ff"/><path d="m118.964844 44.246094c0 1.726562-1.726563 233.871094-1.726563 233.871094l8.640625 129.609374s-23.617187-11.523437-41.476562-6.914062c-17.855469 4.609375-53.570313 12.097656-59.90625 23.617188-6.335938 11.519531-6.910156 16.128906-6.910156 16.128906l-4.609376-34.5625-4.03125-127.878906-4.035156-186.636719 12.097656-58.179688 32.832032-21.890625 37.441406-1.148437 21.890625 13.246093zm0 0" fill="#99d7ff"/><path d="m40.542969 416.722656c-.113281 4.089844-1.191407 8.171875-.625 12.308594.070312.511719.21875 2.035156.890625 2.375 1.113281.566406 4.945312-2.878906 5.746094-3.34375 4.742187-2.753906 10.246093-3.984375 15.707031-3.808594 3.894531.125 7.648437.089844 11.207031 1.769532 1.257812.59375 2.597656 1.023437 3.839844 1.660156.394531.199218 1.234375.976562 1.707031.972656 2.050781-.011719 2.3125-6.136719 2.472656-7.097656.949219-5.59375 1.585938-12.308594.34375-17.957032-1.605469-.203124-3.59375.457032-5.152343.6875-3.394532.5-6.605469.960938-9.914063 1.914063-4.355469 1.25-8.75 2.308594-13.105469 3.523437-4.050781 1.132813-6.878906 3.003907-10.046875 5.707032" fill="#99d7ff"/><path d="m285.175781 113.027344 101.222657 71.953125 11.789062 10.976562-15.449219 20.328125-90.652343-76.019531-13.007813.40625-115.046875 74.394531-9.351562-15.855468 39.027343-27.238282 65.449219-42.683594zm0 0" fill="#ff5a53"/><path d="m284.738281 138.238281c.835938 0 60.460938 41.792969 60.738281 42.90625.28125 1.117188 25.078126 23.683594 25.078126 23.683594l-4.738282 129.003906-178.042968-.554687-.835938-133.742188zm0 0" fill="#f0f2fa"/><path d="m254.890625 262.269531c.734375.183594 44.480469 1.472657 44.480469 1.472657l.1875 70.769531-46.691406-.183594zm0 0" fill="#af7979"/><path d="m193.125 121.28125 34.375-.183594.917969 28.675782-34.710938 22.199218zm0 0" fill="#af7979"/><path d="m235.082031 193.523438 91.570313 2.714843-3.5625 39.679688-86.480469-2.546875zm0 0" fill="#5bd0fc"/><path d="m466.648438 430.347656c-2.484376-21.449218-4.585938-42.925781-6.078126-64.46875-5.945312-85.984375-3.820312-172.253906-.804687-258.308594.378906-10.804687.800781-21.609374 1.15625-32.414062.109375-3.433594-3.078125-6.644531-6.523437-6.519531-13.601563.480469-27.207032.945312-40.808594 1.40625.230468-10.65625.527344-21.3125.894531-31.96875.316406-9.128907.308594-18.152344 1.058594-27.257813.074219-.90625.105469-1.941406.023437-2.984375-.160156-2.03125-.765625-4.082031-2.351562-5.207031-2.136719-1.511719-5.339844-.832031-7.773438-.960938-4.695312-.253906-9.390625-.480468-14.085937-.679687-9.007813-.386719-18.015625-.671875-27.027344-.832031-16.683594-.296875-33.378906-.1171878-50.058594.144531-16.320312.253906-32.636719.675781-48.945312 1.285156-15.386719.574219-30.898438 1.4375-45.875 5.285157-3.277344.84375-5.757813 5.507812-3.460938 8.515624 9.769531 12.808594 21.347657 23.808594 33.015625 34.851563 8.582032 8.117187 17.140625 16.253906 25.707032 24.382813-26.300782.84375-52.601563 1.683593-78.902344 2.519531-24.195313.773437-48.390625 1.546875-72.585938 2.316406.261719-12.238281.679688-24.640625-2.078125-36.652344-2.730469-11.90625-9.304687-22.625-19.808593-29.136719-9.519532-5.898437-21.214844-7.851562-32.265626-7.390624-23.589843.984374-50.695312 11.578124-61.15625 34.214843-5.890624 12.738281-6.441406 26.941407-6.875 40.734375-.496093 15.761719-.796874 31.527344-.9414058 47.296875-.2929682 32.222657.0859378 64.449219.9570318 96.660157.980468 36.347656 2.558593 72.675781 4.421874 108.988281 1.640626 31.90625 2.332032 63.890625 5.6875 95.683593.472657 4.472657.582032 9.152344 1.929688 13.476563.351562 1.132813.792969 2.238281 1.230469 3.339844.351562.882812.703125 1.765625 1.105469 2.621093 7.609374 16.222657 28.320312 15.785157 43.558593 16.617188 17.8125.980469 35.671875 1.402344 53.550781 1.597656 2.046876 6.171875 4.121094 12.339844 6.234376 18.488282 2.152343 6.265624 3.855468 13.121093 6.867187 19.027343 6.824219 13.398438 23.039063 4.003907 33.410156.558594 28.210938-9.371094 56.417969-18.761719 84.585938-28.265625 8.472656-2.859375 16.941406-5.738281 25.40625-8.621094 17.242187.175782 34.488281.351563 51.730469.546875 21.988281.25 43.972656.554688 65.960937.832031l32.980469.417969c10.214844.128907 20.816406 1.117188 30.992187.167969 8.242188-.765625 15.136719-5.179688 17.246094-13.527344 2.179687-8.617187-.304687-18.164062-1.304687-26.78125zm-190.652344-387.105468c-2.964844.839843-4.933594 3.28125-6.878906 5.519531-.730469.84375-1.566407 1.761719-2.347657 2.730469-2.917969-2.757813-5.863281-5.511719-8.816406-8.273438 2.105469-2.03125 4.214844-4.058594 6.269531-6.152344 2.671875-2.730468-.84375-7.714844-4.207031-5.449218-2.839844 1.914062-5.210937 4.105468-7.359375 6.617187-7.445312-7.058594-14.757812-14.285156-21.351562-22.082031 12.203124-2.234375 24.578124-2.9375 37.011718-3.503906 15.992188-.722657 31.992188-1.28125 47.996094-1.671876 16.003906-.390624 32.007812-.519531 48.015625-.757812 13.199219-.199219 26.382813-.023438 39.546875-.675781-2.6875 56.316406-3.710938 112.769531-2.417969 169.140625-.945312-.816406-1.867187-1.671875-2.796875-2.53125-4.011718-3.722656-7.988281-7.484375-11.964844-11.238282-2.738281-2.585937-5.476562-5.171874-8.214843-7.753906 1.269531-.828125 2.484375-1.753906 3.664062-2.691406 2.0625-1.640625 4.207031-3.144531 5.074219-5.738281.855469-2.570313-1.75-4.429688-4.027344-4.027344-2.550781.453125-4.554687 2.734375-6.375 4.4375-1.136718 1.070313-2.230468 2.195313-3.230468 3.394531-2.902344-2.742187-5.804688-5.480468-8.703126-8.21875 2.738282-2.625 5.777344-4.632812 7.601563-8.210937 1.304687-2.5625-1.53125-6.214844-4.285156-4.285157-1.96875 1.378907-3.40625 2.792969-4.808594 4.746094-.914063 1.277344-1.640625 2.671875-2.503906 3.972656-3.464844-3.273437-6.929688-6.546874-10.394531-9.820312 2.679687-2.414062 6.25-3.996094 7.277343-7.667969.460938-1.644531-.835937-3.378906-2.554687-3.359375-4.378906.054688-6.578125 3.855469-8.894532 7.085938-3.117187-2.949219-6.234374-5.894532-9.355468-8.84375.589844-.441406 1.1875-.875 1.792968-1.3125 1.957032-1.40625 4.089844-2.757813 4.726563-5.230469.65625-2.554687-1.625-4.632813-4.097656-4.097656-2.398438.519531-3.796875 2.59375-5.21875 4.414062-.539063.691407-1.082031 1.371094-1.632813 2.039063-3.046875-2.882813-6.097656-5.761719-9.148437-8.644532.773437-.691406 1.574219-1.335937 2.4375-1.96875 1.726562-1.269531 3.105469-2.417968 4.390625-4.148437 2.070312-2.792969-1.90625-6.3125-4.632813-4.632813-2.695312 1.660157-4.441406 4.324219-6.429687 6.746094-1.101563-1.042968-2.203125-2.082031-3.304688-3.125-1.550781-1.464844-3.101562-2.933594-4.652344-4.402344.84375-.632812 1.707032-1.238281 2.597657-1.839843 2.050781-1.382813 4.046875-2.542969 4.144531-5.285157.066406-1.835937-1.507812-2.984374-3.160156-3.160156-2.488282-.261718-4.03125 1.890625-5.519532 3.523438-.816406.894531-1.648437 1.734375-2.503906 2.558594-2.847656-2.695313-5.691406-5.386719-8.535156-8.078126.648438-.515624 1.316406-1.011718 1.988281-1.527343 1.839844-1.402344 3.210938-2.75 4.464844-4.710938 1.90625-2.980469-1.886719-6.742187-4.863281-4.863281-1.953125 1.234375-3.328125 2.625-4.730469 4.445312-.554687.71875-1.09375 1.429688-1.648437 2.121094-2.953126-2.796875-5.910157-5.585937-8.859376-8.382812 1.082032-.796875 2.144532-1.617188 3.164063-2.496094 1.894531-1.640625 4.222656-3.675781 4.671875-6.25.285156-1.628906-.6875-3.292969-2.503906-3.285156-2.859375.011718-5.253906 2.042968-7.230469 3.933594-1.105469 1.058593-2.085937 2.222656-3.015625 3.433593-2.484375-2.355469-4.972656-4.707031-7.453125-7.070312.882813-.765625 1.710937-1.578125 2.484375-2.308594 2.128906-2.011719 4.597656-4.125 5.304688-7.09375.558593-2.367187-1.546876-4.683594-3.996094-3.992187zm86.351562 286.066406c-.453125.585937-5.273437.496094-6.078125.5625-3.390625.289062-6.785156.535156-10.183593.738281-7.132813.433594-14.277344.695313-21.425782.839844-6.703125.136719-13.410156.179687-20.117187.167969.523437-7.304688.085937-14.859376.136719-22.082032.0625-9.507812.078124-19.015625.042968-28.523437-.015625-4.726563.195313-9.546875-.085937-14.265625-.15625-2.589844-.722657-5.089844-3.023438-6.613282-2.679687-1.777343-7.167969-1.109374-10.121093-1.175781-4.625-.105469-9.25-.214843-13.878907-.320312-4.625-.105469-9.25-.210938-13.878906-.320313-3.332031-.074218-7.972656-.988281-11.082031.445313-3.050782 1.40625-3.128906 4.445312-3.207032 7.425781-.128906 4.703125-.050781 9.417969-.074218 14.121094-.046875 9.414062-.203125 18.832031-.054688 28.246094.117188 7.308593-.238281 14.851562.539063 22.167968-3.085938-.066406-6.171875-.128906-9.257813-.1875-14.078125-.261718-28.15625-.5625-42.234375-.882812-1.71875-.039063-3.433593-.078125-5.152343-.117188-.34375-.007812-.6875-.015625-1.027344-.023437-.441406-.097657-.785156-.152344-1.082032-.1875-.359374-2.84375-.027343-6.132813-.109374-8.855469-.214844-7.121094-.394532-14.242188-.539063-21.363281-.625-31.066407.519531-62.367188-1.222656-93.386719 1.742187-1.109375 3.5-2.195312 5.238281-3.3125 20.636719-13.226562 40.917969-27.003906 60.820312-41.3125 4.777344-3.433594 9.527344-6.902344 14.261719-10.394531 4.542969-3.347657 10.101563-8.289063 16.128907-8.007813 5.351562.253906 10.363281 5.011719 14.488281 8.003906 4.847656 3.515626 9.648437 7.09375 14.398437 10.742188 17.535156 13.46875 34.359375 27.867188 50.4375 43.046875 1.890625 26.5 3.140625 52.734375 1.714844 79.335937-.761719 14.195313-2.363281 28.25-4.078125 42.347657.179687-1.488281-.425781 3.3125-.292969 3.140625zm-66.128906 2.257812c-13.414062-.113281-26.832031-.417968-40.246094-.710937 1.375-9.921875.929688-20.484375 1.050782-30.371094.066406-5.71875.128906-11.433594.195312-17.148437.0625-5.4375-.722656-11.832032.027344-17.382813 1.515625-.019531 3.617187.3125 4.507812.332031l5.945313.140625c4.625.109375 9.253906.21875 13.878906.324219 4.539063.109375 9.359375.714844 13.882813.328125.46875.066406.839843.109375 1.144531.136719.007812 1.203125.019531 2.40625.027343 3.605468.015626 2.378907.027344 4.757813.039063 7.132813.039063 9.507813.027344 19.019531-.03125 28.527344-.046875 8.15625-.875 16.824219-.421875 25.085937zm59.0625-147.109375c-10.398438-9.175781-21.085938-18.019531-32.039062-26.523437-4.753907-3.691406-9.550782-7.328125-14.398438-10.898438-5.265625-3.871094-10.683594-8.617187-16.800781-11.054687-11.953125-4.761719-22.300781 4.667969-31.285157 11.269531-22.917968 16.832031-46.359374 32.957031-70.269531 48.347656-5.773437 3.710938-11.574219 7.382813-17.398437 11.011719-1.25.78125-6.957032 5.347656-8.339844 5.15625-1.621094-.226563-1.875-1.804687-2.71875-3.382813-.46875-.878906-2.871094-4.339843-2.839844-5.316406.082032-2.804687 5.582032-5.101562 7.667969-6.515625 3.410156-2.3125 6.816406-4.621093 10.226563-6.933593 12.898437-8.746094 26.035156-17.269532 38.980468-26.03125 4.484375-3.035157 8.96875-6.074219 13.453125-9.109376 3.949219-2.675781 7.902344-5.351562 11.851563-8.023437 7-4.738281 14-9.476563 21-14.21875 6.078125-4.117187 11.390625-9.011719 17.425781-13.015625 2.078125-1.378906 2.976563-2.425781 5.554687-1.339844 2.164063.914063 4.238282 2.652344 6.210938 3.921875 8.304688 5.332031 16.496094 10.835938 24.601562 16.460938 16.214844 11.261719 32.078126 23.023437 47.804688 34.957031 7.863281 5.96875 15.710938 11.964844 23.523438 18.003906 1.480468 1.144532 3.148437 2.25 4.46875 3.59375 2.730468 2.777344 1.636718 3.804688-.546876 6.660156-1.550781 2.023438-3.375 3.890626-5.046874 5.816407-.914063 1.058593-1.90625 2.582031-3.039063 3.722656-2.109375-1.511719-4.363281-4.609375-5.828125-6.027344-7.257812-7.019531-14.648438-13.851562-22.21875-20.53125zm-158.335938-60.128906c4.238282-.230469 8.480469-.386719 12.726563-.375 4.503906.015625 10.058594-.453125 14.78125.324219v.085937c-.050781 1.632813-.023437 3.277344-.039063 4.914063-.027343 2.949218-.066406 5.898437-.109374 8.847656-.054688 3.484375-.292969 7.050781-.105469 10.558594-5.03125 3.421875-10.058594 6.839844-15.101563 10.222656-4.242187 2.84375-8.480468 5.695312-12.71875 8.542969 1.925782-14.238281 1.753906-28.785157.566406-43.121094zm-154.578124 294.527344c4.183593-2.484375 8.640624-4.527344 13.195312-6.132813 7.335938-2.585937 14.9375-4.222656 22.636719-5.148437-.3125 2.796875.125 5.8125.265625 8.539062.125 2.445313.308594 4.890625.640625 7.3125-10.929688-6.9375-25.324219-6.894531-36.203125.828125.082031-1.851562-.011719-3.695312-.535156-5.398437zm16.992187 8.847656c4.433594-.503906 8.976563.054687 13.171875 1.5625 2.070312.746094 3.859375 1.84375 5.792969 2.847656 1.878906.976563 6.921875.929688 7.53125-1.636719 1.117187-4.71875 1.449219-9.53125 1.671875-14.367187.136718-3.023437.695312-6.320313.234375-9.339844 3.980469-.191406 7.972656-.230469 11.949219-.128906 6.765624.171875 16.410156.410156 20.226562 7.160156 4.046875 7.152344-5.433594 13.734375-10.507812 17.097657-12.867188 8.527343-28.234376 12.921874-43.660157 12.554687-5.667969-.132813-16.417969-.101563-20.0625-5.546875-3.789062-5.664062 9.761719-9.761719 13.652344-10.203125zm-40.222656-.859375c-.339844-25.410156-2.398438-50.882812-3.546875-76.230469-1.398438-30.832031-2.617188-61.671875-3.457032-92.527343-1.660156-60.738282-2.308593-121.6875.613282-182.398438.625-13.007812 1.847656-27.457031 10.394531-37.980469 7.421875-9.140625 18.609375-14.328125 29.746094-17.34375 21.167969-5.734375 48.25-3.109375 56.015625 20.941407 3.6875 11.421874 3.238281 23.679687 3.003906 35.527343-.3125 15.671875-.535156 31.347657-.648438 47.023438-.21875 29.988281-.054687 59.976562.480469 89.960937.613281 34.074219 1.714844 68.140625 3.300781 102.179688 1.304688 27.96875 2.15625 56.140625 5.445313 83.976562-10.75-6.070312-26.542969-4.609375-37.835937-3.566406-16.839844 1.550781-33.855469 5.925781-47.988282 15.546875-5.394531 3.671875-11.371094 8.871094-15.523437 14.890625zm138.792969 67.054688c-3.207032 1.0625-6.410157 2.128906-9.617188 3.195312-2.683594.894531-7.722656 3.617188-10.496094 3.464844-2.761718-.152344-3.09375-3.691406-3.96875-6.214844-1.210937-3.488281-2.410156-6.976562-3.597656-10.472656-1.945312-5.714844-3.851562-11.445313-5.738281-17.179688 6.675781-2.832031 13.367187-5.625 20.066406-8.398437.296875.875.644531 1.746093.949219 2.621093 1.082031 3.128907 2.167968 6.441407 4.199218 9.085938 2.207032 2.871094 6.234376 1.1875 5.722657-2.414062-.464844-3.289063-2.074219-6.402344-3.546875-9.359376-.402344-.8125-.777344-1.65625-1.1875-2.46875 3.269531-1.34375 6.546875-2.675781 9.820312-4.007812 1.617188 4.664062 2.203125 9.796875 5.476563 13.652344 1.273437 1.5 3.75.597656 4.242187-1.121094 1.589844-5.550781-1.382812-10.316406-4.648437-14.585938 4.25-1.714843 8.511719-3.394531 12.769531-5.09375 1.511719 5.210938 2.113281 11.394532 6.691406 14.484376 1.46875.988281 3.59375-.011719 4.019532-1.636719 1.398437-5.339844-2.511719-10.347657-5.671876-14.855469 4.164063-1.648438 8.335938-3.269531 12.503907-4.898438 2.074219 5.667969 2.296875 12.207032 6.679687 16.734376 1.226563 1.265624 3.726563.738281 4.101563-1.082032 1.386719-6.722656-2.765625-12.085937-6.191407-17.449218 5.1875-2.019532 10.382813-4.015626 15.582032-6.011719 1.25 5.644531 2.863281 12.53125 7.9375 15.261719 1.785156.960937 3.875-.246094 3.949218-2.265626.117188-3.257812-1.570312-6.035156-3.082031-8.824218-1.113281-2.0625-2.324219-4.128906-3.417969-6.230469 4.660157-1.777344 9.328126-3.539063 13.996094-5.296875.792969 4.050781 1.710938 8.457031 4.820313 10.933594 2.058593 1.636718 5.441406.730468 5.441406-2.253906 0-3.917969-2.4375-7.398438-4.273437-10.925782 3.394531-1.269531 6.800781-2.511718 10.195312-3.773437.847656 2.09375 1.570312 4.238281 2.300781 6.375.914063 2.683593 1.589844 5.746093 3.882813 7.601562 1.53125 1.238281 4.078125.96875 4.621094-1.222656 1.207031-4.863281-2.238282-10.308594-5.183594-14.832031 4.972656-1.835938 9.957031-3.648438 14.9375-5.46875.820312 4.855468.753906 11.027344 5.097656 13.683594 1.207031.742187 3.03125.304687 3.703125-.96875 1.425781-2.707032.703125-5.292969-.359375-8.019532-.507812-1.304687-1.015625-2.617187-1.582031-3.902344-.417969-.953124-.992188-1.84375-1.527344-2.746093 4.636719-1.6875 9.277344-3.359375 13.921875-5.03125 0 .652343-.03125 1.308593.046875 1.851562.179687 1.261719.445313 2.515625.667969 3.773438.464844 2.613281.960937 5.1875 2.28125 7.519531 1.425781 2.523438 5.699218 1.484375 5.570312-1.511719-.171875-4.019531-2.03125-8.195312-3.726562-11.804687-.203125-.433594-.449219-.882813-.726563-1.316406 6.074219-2.179688 12.160157-4.332032 18.246094-6.492188.726563 5.160156.933594 10.839844 4.214844 14.792969 1.34375 1.617187 4.554687.808593 4.90625-1.292969.867187-5.234375-1.976563-10.378906-3.960938-15.335938 4.808594-1.699218 9.621094-3.394531 14.433594-5.082031.582031 5.28125 1.121094 11.441407 5.792969 13.613281 1.511718.699219 2.976562.109376 3.5625-1.453124 1.710937-4.546876-1.765625-9.460938-4.253906-13.945313 4.210937-1.472656 8.421874-2.941406 12.636718-4.402344 1.980469-.6875 3.945313-1.390625 5.917969-2.085937.695313 4.484375 1.308594 8.929687 4.207031 12.664062 1.371094 1.761719 4.417969.257813 4.335938-1.796875-.179688-4.449219-2.351563-8.378906-4.023438-12.457031 4.273438-1.523438 8.535156-3.070312 12.78125-4.648438.972656 4.597657 1.730469 9.359376 4.691406 12.988282 1.28125 1.574218 4.378907.761718 4.714844-1.246094.8125-4.839844-1.316406-9.355469-3.671875-13.617188.839844-.257812 1.675781-.523437 2.515625-.777343 3.199219-.96875 6.40625-1.914063 9.609375-2.871094.1875 1.320313.332031 2.652344.550781 3.929687.433594 2.53125 1.285157 4.699219 2.285157 7.042969 1.316406 3.089844 6.054687 1.351563 6.046875-1.636719-.007813-2.597656-.257813-4.925781-1.191406-7.371093-.492188-1.292969-1.125-2.515625-1.757813-3.734375.632813-.1875 1.265625-.378906 1.898437-.566406 4.277344-1.261719 8.644532-2.148438 12.957032-3.222657 5.191406 9.101563 9.125 18.78125 11.566406 29.03125.625 2.617188 1.296875 5.277344 1.710938 7.929688.140624.902343-.175782 1.800781.050781 1.835937-.726563.382813-1.75.605469-2.394531.867188-6.265626 2.519531-12.644532 4.796875-18.96875 7.167968-24.988282 9.375-50.097657 18.414063-75.28125 27.265626-50.035157 17.59375-100.308594 34.503906-150.625 51.273437-7.054688 2.34375-14.105469 4.691406-21.15625 7.039063zm295.257812-36.609376c-2.757812 1.523438-6.753906.957032-9.765625.949219-4.8125-.007812-9.621094-.027343-14.429687-.042969l-28.859376-.085937c-33.054687-.097656-66.105468-.230469-99.160156-.378906 37.097656-12.824219 74.101563-25.929688 110.964844-39.410157 3.804688-1.390624 7.609375-2.789062 11.410156-4.191406 3.519532-1.300781 7.613282-2.296875 10.675782-4.542968 5.738281-4.203126 4.808593-10.929688 3.78125-17.101563-2.445313-14.710937-8.460938-29-16.292969-41.621094-1.453125-2.347656-4.453125-3.757812-7.1875-2.925781-5.800781 1.765625-11.394531 4.292969-17.175781 6.183594-5.449219 1.785156-10.894532 3.589844-16.332032 5.414062-11.515625 3.863282-23.03125 7.734375-34.511718 11.703125-11.171876 3.863281-22.226563 8.046875-33.289063 12.214844-2.28125.859375-4.554687 1.71875-6.816406 2.585937-3.5625 1.234376-7.128907 2.46875-10.695313 3.699219-39.125 13.484375-78.101562 27.441407-116.675781 42.4375-20.601563 8.007813-41.105469 16.273438-61.425781 24.972657-19.15625-.007813-38.308594-.1875-57.410156-1.003907-9.566407-.410156-36.109376.925781-36.648438-13.859375-.132812-3.644531 1.386719-7.066406 3.441406-9.992187 1.695313-2.417969 4.882813-6.738281 7.695313-7.667969.679687 3.328125.632812 6.972656.910156 10.363281.082031 1.046875.167969 2.097657.371094 3.125 1.777343 9.085938 11.59375 12.703125 19.710937 13.914063 17.140625 2.558594 34.699219-.242188 50.273438-7.835938 11.527344-5.617187 28.988281-16.988281 24.984375-31.507812.082031-30.210938-2.71875-60.382813-4.160157-90.558594-1.53125-31.996094-2.628906-64.015625-3.300781-96.042969-.667969-32.023437-.90625-64.058593-.710937-96.09375.078125-12.730469.242187-25.464843.457031-38.195312 54.792969-1.714844 109.585937-3.429688 164.378906-5.144531.105469.101562.210938.199218.316407.300781 25.542968 24.253906 51.109374 48.480469 76.683593 72.703125 6.175781 5.847656 12.359375 11.691406 18.519531 17.554687-2.800781-2.160156-5.601562-4.324219-8.410156-6.476562-9.925781-7.613281-19.894531-15.171875-29.960937-22.597657-10.859375-8.007812-21.832031-15.855468-32.984375-23.445312-5.714844-3.882812-11.472656-7.699219-17.285156-11.429688-4.472657-2.871093-8.734376-5.914062-14.21875-4.074218-5.800782 1.953125-11.175782 7.796875-15.9375 11.464844-4.40625 3.398437-8.8125 6.796874-13.21875 10.191406-6.195313 4.007812-12.328126 8.117187-18.445313 12.253906.027344-3.007812-.082031-6.015625-.054687-8.902344.042968-4.140625 1.777343-12.1875-1.183594-15.636718-3.1875-3.71875-12.09375-2.375-16.460938-2.484376-7.453125-.183593-14.914062-.175781-22.363281.117188-2.132813.082031-4.398437 1.863281-4.207031 4.203125 1.390625 16.949219 1.566406 33.933594 2.5 50.882813-4.398438 2.953124-8.796875 5.90625-13.195313 8.863281-4.835937 3.253906-9.675781 6.507812-14.515625 9.761719-3.769531 2.535156-9.730468 5.144531-11.496094 9.679687-1.726562 4.421875 1.863282 9.015625 3.832032 12.730469 2.136718 4.039062 4.207031 8.605468 9.589844 7.789062 4.777343-.722656 9.8125-5.25 13.820312-7.742187 1.65625-1.03125 3.296875-2.089844 4.949219-3.125-2.753907 29.039062-1.972657 58.746093-1.519531 87.839843.113281 7.121094.257812 14.242188.441406 21.359376.125 5.003906-1.742188 14.863281 3.164062 18.265624 2.128906 1.480469 5.023438 1.1875 7.457032 1.222657 3.777343.058593 7.554687.117187 11.332031.175781 8.238281.128906 16.480469.257812 24.722656.417969 30.757813.609375 61.566406 1.734375 92.332031 1.289062 7.488282-.109375 14.972656-.335937 22.449219-.746093 6.628906-.367188 14.054687-.121094 20.519531-1.699219 5.890625-1.4375 5.960938-7.40625 6.65625-12.386719 1.070313-7.679688 1.988282-15.378906 2.722656-23.097656 2.738282-28.886719 3.414063-58.597656.601563-87.644532 1.839844 1.941407 3.769531 3.742188 5.828125 4.839844 4.382812 2.335938 7.253906-.609375 9.96875-3.726562 5.410156-6.214844 15.636719-14.03125 10.347656-22.992188 1.679688.941406 3.449219 1.75 5.355469 2.359375 3.621094 1.160157 7.523437-1.96875 7.457031-5.679687-.65625-35.40625-.757812-70.828125-.15625-106.234375 11.421875-.316407 22.84375-.625 34.269532-.9375-2.878907 72.367187-5.109376 144.886719-3.214844 217.300781.96875 37.089844 3.089844 74.164062 6.941406 111.070312.976562 9.402344 2.089844 18.789063 3.34375 28.15625.617188 4.640626 3.871094 15.941407-1.5 18.90625zm0 0"/><path d="m266.636719 294.652344c-2.394531.675781-4.09375 2.929687-4.085938 5.414062.003907 1.074219.332031 2.101563.878907 3.015625.785156 1.308594 1.96875 2.03125 3.359374 2.554688l-1.105468-.464844c.453125.214844.921875.398437 1.386718.589844.835938.222656 1.675782.222656 2.515626 0 .800781-.226563 1.5-.632813 2.089843-1.21875.164063-.136719.316407-.292969.460938-.457031.683593-.632813 1.21875-1.429688 1.5-2.386719.582031-1.988281.082031-4.203125-1.402344-5.675781-1.457031-1.449219-3.644531-1.921876-5.597656-1.371094zm0 0"/><path d="m313.550781 191.121094c-6.769531-.390625-13.5-.625-20.210937-.632813-.808594-.054687-1.617188-.109375-2.421875-.164062-12.472657-.859375-25.027344-.925781-37.523438-.75-5.753906.082031-11.902343-.304688-17.597656.535156-3.84375.570313-4.851563 2.796875-5.1875 6.46875-1.140625 12.324219-.175781 25.292969.941406 37.582031.199219 2.179688 1.632813 3.796875 3.902344 3.902344 18.953125.882812 37.9375 1.496094 56.910156 1.632812 9.414063.066407 19.0625.425782 28.453125-.308593 7.871094-.613281 7.269532-9.066407 7.859375-15.210938.816407-8.539062 1.675781-18.242187.191407-26.753906-1.273438-7.332031-9.515626-5.960937-15.316407-6.300781zm-74.574219 39.246094c-.402343-4.132813-.714843-8.28125-.910156-12.429688 6.246094 1.234375 13.023438 1.089844 19.257813 1.382812.953125.042969 1.910156.078126 2.863281.121094.09375 1.648438.207031 3.292969.316406 4.933594.148438 2.257812.113282 4.53125.460938 6.71875-7.332032-.234375-14.660156-.496094-21.988282-.726562zm21.019532-17.421876c0 .09375.003906.183594.003906.277344-.890625-.03125-1.78125-.058594-2.671875-.09375-6.351563-.253906-13.078125-1.0625-19.488281-.472656-.253906-4.789062-.738282-10.433594.09375-15.117188.757812-.035156 1.519531-.074218 2.277344-.105468 2.027343-.085938 4.054687-.164063 6.082031-.230469 3.382812-.109375 6.761719-.191406 10.144531-.246094 1.878906-.027343 3.757812-.019531 5.640625-.027343-1.976563 4.898437-2.03125 11.128906-2.082031 16.015624zm29.535156 18.777344c-2.441406-.027344-4.886719-.039062-7.332031-.082031-4.902344-.078125-9.808594-.207031-14.710938-.351563.136719-2.269531-.265625-4.589843-.433593-6.914062-.113282-1.550781-.210938-3.101562-.300782-4.652344 4.585938.1875 9.175782.355469 13.765625.496094 3.035157.089844 6.074219.164062 9.109375.234375-.1875 3.769531-.277344 7.539063-.097656 11.269531zm.742188-21.652344c-.082032 1.316407-.167969 2.636719-.257813 3.960938-3.164063-.050781-6.332031-.105469-9.496094-.175781-4.695312-.109375-9.386719-.25-14.082031-.40625-.171875-5.347657.816406-11.175781.492188-16.546875 4.28125.007812 8.558593.054687 12.839843.160156 3.863281.09375 7.753907.273438 11.660157.476562-1.105469 4.09375-.957032 9.339844-1.15625 12.53125zm30.28125 15.074219c-.171876 1.878907-.046876 4.527344-.65625 6.316407-.710938.023437-1.417969.046874-2.128907.0625-3.726562.101562-7.453125.171874-11.179687.210937-3.375.039063-6.753906.039063-10.132813.03125.273438-3.707031.347657-7.4375.394531-11.171875 2.289063.039062 4.578126.089844 6.871094.109375 5.621094.058594 11.449219.441406 17.148438.1875-.089844 1.417969-.183594 2.839844-.316406 4.253906zm.625-10.96875c-5.796876-.261719-11.710938.097657-17.457032.042969-2.257812-.023438-4.515625-.058594-6.777344-.085938.03125-1.355468.0625-2.710937.121094-4.0625.136719-3.328124.957032-8.179687.429688-12.21875 4.402344.226563 8.808594.433594 13.199218.515626 1.960938.199218 3.921876.410156 5.882813.644531.300781.035156 2.863281.320312 4.203125.292969.027344.1875.058594.378906.09375.601562.058594.96875.113281 1.941406.160156 2.910156.179688 3.785156.230469 7.574219.144532 11.359375zm0 0"/><path d="m314.199219 56.777344c5.972656 5.238281 12.066406 10.332031 18.160156 15.425781 6.175781 5.167969 12.363281 10.328125 18.558594 15.480469 5.605469 4.664062 11.082031 9.941406 17.460937 13.542968 2.527344 1.425782 5.351563.460938 6.941406-1.820312 2.210938-3.179688 2.097657-7.007812 2.296876-10.742188.253906-4.753906.417968-9.507812.496093-14.265624.152344-9.515626-.046875-19.039063-.597656-28.539063-.183594-3.128906.207031-7.398437-1.667969-10.113281-2.175781-3.152344-6.085937-2.863282-9.535156-2.832032-6.085938.0625-13.324219-.550781-19.796875.324219-2.289063-.015625-4.578125-.03125-6.867187-.058593-11.449219-.136719-22.976563-.128907-34.375 1.089843-3.867188.414063-6.269532 3.980469-4.382813 7.640625 3.117187 6.050782 8.269531 10.445313 13.308594 14.867188zm53.691406 31.992187c-1.894531-1.417969-3.726563-2.933593-5.539063-4.464843 1.832032-.058594 3.660157-.113282 5.492188-.171876.054688 1.492188.109375 3.097657.046875 4.636719zm-28.242187-45.757812c7.226562-.246094 14.425781-.503907 21.644531-.898438 1.550781-.085937 3.109375-.167969 4.644531.042969.359375.050781.75.132812.96875.421875.179688.238281.199219.554687.214844.851563.34375 7.601562.734375 15.195312.796875 22.808593.011719 1.777344.003906 3.558594-.007813 5.335938-6.699218.222656-13.402344.445312-20.101562.664062-2.832032-2.328125-5.667969-4.652343-8.496094-6.988281-5.410156-4.460938-10.871094-8.875-16.15625-13.480469-2.925781-2.550781-5.984375-5.15625-8.632812-8.070312 8.363281-.441407 16.746093-.40625 25.125-.6875zm0 0"/></svg>