<svg id="Layer_1_1_" enable-background="new 0 0 64 64" height="512" viewBox="0 0 64 64" width="512" xmlns="http://www.w3.org/2000/svg"><path d="m48 55h-45v-52h38l7 7z" fill="#50b6cf"/><path d="m48 10h-7v-7z" fill="#3cadc9"/><path d="m48 29c-5 10-26.15985 23.39606-45 23.95081v2.04919h45z" fill="#3cadc9"/><path d="m10 47h31v-31zm24-7h-7l7-7z" fill="#f5a947"/><path d="m41 34.76202c-.56012.29523-1.10437.61041-1.60742.96356l-1.13086.79443.5791 2.26074c-.01953.02002-.04004.03955-.05957.05957l-2.26074-.5791-.79492 1.13037c-.49121.69922-.93262 1.46582-1.31152 2.27783l-.58496 1.25342 1.63477 1.67383c-.00684.02588-.01367.05176-.02051.07764l-2.25684.63428-.12109 1.37598c-.00916.10394-.008.21094-.01569.31543h7.95025z" fill="#f09d3a"/><path d="m60.94244 49.13989c.03278-.37634.05756-.75506.05756-1.13989s-.02478-.76355-.05756-1.13989l-2.09125-.58746c-.12109-.76581-.31873-1.50452-.58929-2.20917l1.51196-1.54822c-.3233-.69269-.70062-1.35364-1.13593-1.97339l-2.09375.53607c-.48303-.59546-1.02637-1.13892-1.62183-1.62195l.53613-2.09369c-.61975-.43542-1.28076-.81274-1.97351-1.13611l-1.54834 1.51196c-.70471-.27063-1.44342-.46826-2.20929-.58936l-.58746-2.09125c-.37633-.03276-.75505-.05754-1.13988-.05754s-.76355.02478-1.13989.05756l-.58746 2.09125c-.76581.12109-1.50452.31873-2.20917.58929l-1.54822-1.51196c-.69269.3233-1.35364.70062-1.97339 1.13593l.53607 2.09369c-.59546.48303-1.13885 1.02643-1.62189 1.62189l-2.09369-.53613c-.43542.61981-.81274 1.28076-1.13611 1.97351l1.5119 1.54828c-.27063.70471-.46826 1.44342-.58936 2.20929l-2.09125.58752c-.03276.37633-.05754.75505-.05754 1.13988s.02478.76349.05756 1.13983l2.09119.58746c.12109.76581.31879 1.50452.58936 2.20917l-1.51196 1.54822c.3233.69275.70062 1.3537 1.13593 1.97345l2.09375-.53607c.48303.59546 1.02637 1.13892 1.62183 1.62195l-.53616 2.09369c.61975.43542 1.28076.81268 1.97351 1.13605l1.54828-1.5119c.70471.27063 1.44348.46826 2.20935.58936l.58746 2.09125c.37635.03276.75507.05754 1.1399.05754s.76355-.02478 1.13989-.05756l.58746-2.09125c.76581-.12109 1.50452-.31873 2.20917-.58929l1.54822 1.51196c.69269-.3233 1.35364-.70062 1.97339-1.13593l-.53607-2.09375c.59546-.48303 1.13892-1.02637 1.62195-1.62183l2.09369.53613c.43542-.61975.81274-1.28076 1.13611-1.97351l-1.51196-1.54834c.27063-.70471.46826-1.44342.58936-2.20929z" fill="#e34e4b"/><path d="m29 8 3 6h-6z" fill="#284163"/><path d="m32 14v11l-6 6v-17z" fill="#223b5a"/><path d="m15 8 5 8-3 5h-4l-3-5z" fill="#ded8d0"/><path d="m17 21 2 6-1.22 12.22-5.05 5.05-1.73-17.27 2-6z" fill="#e34e4b"/><circle cx="48" cy="48" fill="#f26b68" r="8"/><path d="m11.46234 31.61572 1.26764 12.65424 5.05005-5.04999 1.17352-11.75482c-1.87262 2.01672-4.48651 3.4953-7.49121 4.15057z" fill="#de4542"/><path d="m26 31 6-6v-3l-6 6z" fill="#19314f"/><g fill="#0d0f23"><path d="m3 56h33.52283c.00739.01062.01367.02264.02112.0332.23926.33984.66309.49512 1.06641.39355l1.49121-.38184c.26953.29785.55469.58301.85352.85303l-.38281 1.49121c-.10352.40283.05371.82764.39355 1.06689.65137.45703 1.36621.86865 2.125 1.22363.37695.17725.82422.10107 1.12207-.19043l1.10449-1.07812c.37988.12207.76758.2251 1.16113.30908l.41895 1.49268c.11328.40088.46191.68945.87598.72559.40526.03516.81249.06153 1.22655.06153s.82129-.02637 1.22656-.06152c.41406-.03613.7627-.32471.87598-.72559l.41895-1.49268c.39355-.08398.78125-.18701 1.16016-.30908l1.10352 1.07812c.29883.2915.74414.36621 1.12207.19092.75488-.35205 1.4707-.76416 2.12598-1.22412.33984-.23926.49707-.66357.39355-1.06641l-.38184-1.4917c.29785-.26904.58301-.5542.85254-.85254l1.49219.38184c.40234.10303.82715-.05371 1.06641-.39355.45801-.65137.86914-1.3667 1.22363-2.12598.17578-.37695.09961-.82373-.19043-1.12158l-1.07812-1.104c.12207-.37988.22559-.76758.30957-1.16016l1.49219-.41943c.40039-.11279.68945-.46094.72559-.875.03611-.40479.0615-.81299.0615-1.22754s-.02539-.82275-.06152-1.22754c-.03613-.41406-.3252-.76221-.72559-.875l-1.49219-.41943c-.08398-.39258-.1875-.78027-.30957-1.16016l1.07812-1.104c.29004-.29785.36621-.74463.19043-1.12158-.35449-.75928-.7666-1.47412-1.22363-2.12549-.23926-.34033-.66602-.49756-1.06641-.39355l-1.49121.38184c-.26953-.29785-.55469-.58301-.85352-.85303l.38281-1.49121c.10352-.40283-.05371-.82764-.39355-1.06689-.65137-.45703-1.36621-.86865-2.125-1.22363-.37695-.17676-.82422-.10059-1.12207.19043l-1.10449 1.07812c-.37988-.12207-.76758-.2251-1.16113-.30908l-.41895-1.49268c-.11328-.40088-.46191-.68945-.87598-.72559-.07482-.00648-.15135-.00446-.22655-.00977v-24.05176c0-.26514-.10547-.51953-.29297-.70703l-7-7c-.1875-.1875-.44141-.29297-.70703-.29297h-38c-.55273 0-1 .44775-1 1v52c0 .55225.44727 1 1 1zm46.57129-17.86328c.69238.10938 1.36719.28955 2.00684.53516.36426.13916.77832.05615 1.05664-.21826l1.04004-1.01514c.21875.11719.43164.23926.63867.3667l-.36035 1.40234c-.09668.37891.03516.7793.33887 1.02539.54199.43896 1.03809.93555 1.47461 1.47461.24609.30371.64551.4375 1.02539.33936l1.40332-.35938c.12695.20654.24902.41943.36523.63818l-1.01465 1.03906c-.27246.27979-.35742.69238-.21777 1.05713.24609.6416.42676 1.31689.53613 2.00684.06055.38574.34082.70068.7168.80664l1.41113.39648c.00488.12208.00781.24463.00781.36817s-.00293.24609-.00781.36816l-1.41113.39648c-.37598.10596-.65625.4209-.7168.80664-.10938.68994-.29004 1.36523-.53613 2.00684-.13965.36475-.05469.77734.21777 1.05713l1.01562 1.03955c-.11719.21826-.23926.43115-.36621.63818l-1.40332-.35938c-.37598-.09814-.77832.03467-1.02441.33838-.44043.54199-.93652 1.03809-1.47559 1.4751-.30371.24609-.43555.64648-.33887 1.0249l.35938 1.40283c-.20703.12793-.41992.25-.6377.3667l-1.03906-1.01514c-.2793-.27246-.69336-.35986-1.05762-.21826-.64062.24609-1.31641.42578-2.00684.53516-.38574.06104-.70117.34131-.80664.71729l-.39648 1.41162c-.24414.00977-.49219.00977-.73633 0l-.39648-1.41162c-.10547-.37598-.4209-.65625-.80664-.71729-.69238-.10938-1.36719-.28955-2.00684-.53516-.36133-.13721-.77734-.05566-1.05664.21826l-1.04004 1.01514c-.21875-.11719-.43164-.23926-.63867-.3667l.36035-1.40234c.09668-.37891-.03516-.7793-.33887-1.02539-.54199-.43896-1.03809-.93555-1.47461-1.47461-.24609-.30322-.64648-.43506-1.02539-.33936l-.18304.04689h-1.39911c-.06219-.10852-.12708-.21405-.1864-.32568l1.01465-1.03906c.27246-.27979.35742-.69238.21777-1.05713-.24609-.6416-.42676-1.31689-.53613-2.00684-.06055-.38574-.34082-.70068-.7168-.80664l-1.41113-.39648c-.00488-.12208-.00781-.24463-.00781-.36817s.00293-.24609.00781-.36816l1.41113-.39648c.37598-.10596.65625-.4209.7168-.80664.10938-.68994.29004-1.36523.53613-2.00684.13965-.36475.05469-.77734-.21777-1.05713l-1.01562-1.03955c.11719-.21826.23926-.43115.36621-.63818l1.40332.35938c.375.0957.77832-.03516 1.02441-.33838.43945-.5415.93652-1.03809 1.47559-1.47607.30371-.24609.43555-.646.33887-1.02441l-.35938-1.40234c.20703-.12793.41992-.25.6377-.3667l1.03906 1.01514c.2793.27295.69238.35889 1.05762.21826.64062-.24609 1.31641-.42578 2.00684-.53516.38574-.06104.70117-.34131.80664-.71729l.39648-1.41162c.24414-.00977.49219-.00977.73633 0l.39648 1.41162c.10547.37596.4209.65623.80664.71727zm-14.78418 7.76074c-.08142.02295-.15442.06158-.2254.10254h-22.14765l3.58594-3.58594 1.29297 1.29297 1.41406-1.41406-1.29297-1.29297 1.58594-1.58594 1.29297 1.29297 1.41406-1.41406-1.29297-1.29297 1.58594-1.58594 1.29297 1.29297 1.41406-1.41406-1.29297-1.29297 1.58594-1.58594 1.29297 1.29297 1.41406-1.41406-1.29297-1.29297 1.58594-1.58594 1.29297 1.29297 1.41406-1.41406-1.29297-1.29297 1.58594-1.58594 1.29297 1.29297 1.41406-1.41406-1.29297-1.29297 1.58594-1.58594 1.29297 1.29297 1.41406-1.41406-1.29297-1.29297 4.58594-4.58594v18.10876c-.01062.00745-.02258.01367-.0332.02112-.33984.23926-.49707.66357-.39355 1.06641l.38184 1.49121c-.29785.26953-.58301.55469-.85254.85303l-1.49219-.38184c-.40137-.10156-.82715.05371-1.06641.39355-.45801.65137-.86914 1.3667-1.22363 2.12598-.17578.37695-.09961.82373.19043 1.12158l1.07812 1.104c-.12207.37988-.22559.76758-.30957 1.16016zm-22.77051-18.78418 1.7041-5.11328h2.55859l1.7041 5.11328-1.16272 11.65198-3.30548 3.30548zm3.9834-11.11328v-4.51312l2.82715 4.52386-2.39337 3.98926h-2.86755l-2.39337-3.98926 2.82714-4.52386v4.51312zm11-1h4v9.58594l-4 4zm.61792-2 1.38208-2.76416 1.38208 2.76416zm-23.61792-9h36.58594l5 5h-3.58594v-2h-2v3c0 .55225.44727 1 1 1h6v23.05176c-.0752.00531-.15173.0033-.22656.00977-.41406.03613-.7627.32471-.87598.72559l-.41895 1.49268c-.39355.08398-.78125.18701-1.16016.30908l-1.10352-1.07812c-.29785-.29102-.74414-.36572-1.12207-.19092-.0318.01483-.0611.03314-.09277.04822v-19.36806c0-.4043-.24316-.76904-.61719-.92383-.37305-.1543-.80371-.06934-1.08984.2168l-7.29296 7.29297v-8.58594c0-.15527-.03613-.30859-.10547-.44727l-3-6c-.33984-.67773-1.44922-.67773-1.78906 0l-3 6c-.06934.13868-.10547.292-.10547.44727v16.58594l-5.94641 5.94641.94153-9.43323c.01367-.14014-.00195-.28174-.04688-.41553l-1.85437-5.56305 2.76355-4.6059c.19336-.32227.18945-.72607-.00977-1.04443l-5-8c-.36523-.58496-1.33008-.58496-1.69531 0l-5 8c-.19922.31836-.20312.72217-.00977 1.04443l2.76355 4.6059-1.85437 5.56305c-.04492.13379-.06055.27588-.04688.41602l1.68317 16.79828-2.39508 2.39508c-.28613.28613-.37207.71582-.2168 1.08984.15431.37354.51954.61719.92384.61719h24c0 .41455.02539.82275.06152 1.22754.03613.41406.3252.76221.72559.875l1.49219.41943c.08398.39258.1875.78027.30957 1.16016l-1.07812 1.104c-.29004.29785-.36621.74463-.19043 1.12158.01483.03174.03296.06067.04797.09229h-31.36829z"/><path d="m47 40v6.2774c-.30011.17462-.54797.42255-.7226.7226h-4.2774v2h4.2774c.34644.59528.98419 1 1.7226 1 1.10455 0 2-.89545 2-2 0-.73846-.40472-1.37616-1-1.7226v-6.2774z"/><path d="m34.38281 32.07617c-.37402-.1543-.80273-.06934-1.08984.2168l-7 7c-.28613.28613-.37207.71582-.2168 1.08984.1543.37354.51953.61719.92383.61719h7c.55273 0 1-.44775 1-1v-7c0-.4043-.24316-.76904-.61719-.92383zm-1.38281 6.92383h-3.58594l3.58594-3.58594z"/><path d="m6 50h2v2h-2z"/><path d="m10 50h2v2h-2z"/><path d="m14 50h2v2h-2z"/></g></svg>