<svg id="Layer_1" enable-background="new 0 0 256 256" height="512" viewBox="0 0 256 256" width="512" xmlns="http://www.w3.org/2000/svg"><g><g><path d="m246.33 67.524v167.81c0 2.76-2.24 5-5 5h-206.33c-10.88 0-20.15-6.86-23.74-16.48-1.03-2.75-1.59-5.73-1.59-8.84 0-.01 0-.01 0-.02.01-13.45 10.69-24.82 24.5-25.31 14.38-.47 26.17 11.06 26.17 25.31v-152.47h180.99c2.76 0 5 2.24 5 5z" fill="#f2e1d7"/></g><g><path d="m233.332 229.837h-138.189c-1.381 0-2.5-1.119-2.5-2.5s1.119-2.5 2.5-2.5h135.689v-149.31c0-1.381 1.119-2.5 2.5-2.5s2.5 1.119 2.5 2.5v151.81c0 1.381-1.119 2.5-2.5 2.5zm-148.189 0h-6.311c-1.381 0-2.5-1.119-2.5-2.5s1.119-2.5 2.5-2.5h6.311c1.381 0 2.5 1.119 2.5 2.5s-1.12 2.5-2.5 2.5z" fill="#fff"/></g><g><path d="m69.34 62.524v152.47c0 4.97-4.03 9-9 9s-9-4.03-9-9c0-9-7.33-16.33-16.34-16.33s-16.33 7.33-16.33 16.33c0 4.4-3.16 8.07-7.34 8.85-.02 0-.04 0-.07.01-1.03-2.75-1.59-5.73-1.59-8.84 0-.01 0-.01 0-.02v-164.54c0-14 11.34-25.34 25.33-25.34s25.34 11.34 25.34 25.34v12.07z" fill="#d6c0b3"/></g><g><path d="m60.34 50.454v164.54c0-14.25-11.79-25.78-26.17-25.31-13.81.49-24.49 11.86-24.5 25.31v-164.54c0-14 11.34-25.34 25.33-25.34s25.34 11.34 25.34 25.34z" fill="#f2e1d7"/></g><g><path d="m46.532 181.07c-3.162-1.078-6.474-1.705-9.842-1.863-1.38-.065-2.445-1.235-2.38-2.615.064-1.379 1.267-2.44 2.614-2.379 2.681.126 5.331.513 7.914 1.153v-124.909c0-1.381 1.119-2.5 2.5-2.5s2.5 1.119 2.5 2.5v128.247c.001 1.728-1.703 2.914-3.306 2.366zm-26.229-1.563c-.445-1.307.254-2.728 1.561-3.172 1.46-.497 2.967-.915 4.478-1.243 1.34-.292 2.68.563 2.973 1.914.292 1.35-.564 2.681-1.914 2.973-1.324.287-2.645.654-3.925 1.089-1.303.443-2.728-.25-3.173-1.561z" fill="#fff"/></g><g><g><path d="m216.35 149.962-9.33 9.34-53.69-53.69-42.62 42.63-11.06 11.06-9.33-9.34 63.01-63.01z" fill="#fc5d3d"/></g><g><path d="m195.961 148.238v50.062h-85.252v-50.062l42.626-42.626z" fill="#72c2e9"/></g><g><path d="m182.962 189.021c-1.381 0-2.5-1.119-2.5-2.5v-3.797c0-1.381 1.119-2.5 2.5-2.5s2.5 1.119 2.5 2.5v3.797c0 1.381-1.119 2.5-2.5 2.5zm0-13.796c-1.381 0-2.5-1.119-2.5-2.5v-18.066l-28.895-28.895c-.977-.976-.977-2.559 0-3.535.977-.977 2.559-.977 3.535 0l29.627 29.626c.469.469.732 1.104.732 1.768v19.102c.001 1.38-1.118 2.5-2.499 2.5z" fill="#c5e5fe"/></g><g><path d="m172.576 198.3h-38.482v-27.139c0-10.627 8.615-19.241 19.241-19.241 10.627 0 19.241 8.615 19.241 19.241z" fill="#efefef"/></g></g><g><g><path d="m98.284 198.297c-3.871-1.279-7.869-2.397-10.114-12.066-2.067 8.906-5.38 10.502-10.114 12.066 7.722 2.551 8.887 6.776 10.114 12.066 2.116-9.119 5.616-10.58 10.114-12.066z" fill="#f0c020"/></g></g><g><g><path d="m201.331 86.949c-3.871-1.279-7.869-2.397-10.114-12.066-2.067 8.906-5.38 10.502-10.114 12.066 7.722 2.551 8.887 6.776 10.114 12.066 2.115-9.119 5.615-10.58 10.114-12.066z" fill="#f0c020"/></g></g><g><g><path d="m224.153 105.97c-3.871-1.279-7.869-2.397-10.114-12.066-2.067 8.906-5.38 10.502-10.114 12.066 7.722 2.551 8.887 6.776 10.114 12.066 2.116-9.119 5.616-10.58 10.114-12.066z" fill="#f0c020"/></g></g><g><g><path d="m140.339-8.219h29.994v77.773h-29.994z" fill="#72c2e9" transform="matrix(0 1 -1 0 186.003 -124.669)"/></g><g><path d="m116.451 45.664-12.329-6.539-15.952-8.46 15.952-8.46 12.329-6.539z" fill="#eec120"/></g><g><path d="m218.5 30.667c0-8.283-6.714-14.997-14.997-14.997h-9.281v29.994h9.281c8.283 0 14.997-6.714 14.997-14.997z" fill="#fc5d3d"/></g><g><path d="m104.122 39.125-15.952-8.46 15.952-8.46z" fill="#878787"/></g><g><path d="m195.85 129.47c-1.003 1.025-.944 2.596 0 3.54.943.944 2.516 1.004 3.54 0 .934-.934 1.015-2.503 0-3.54-.951-.94-2.59-.94-3.54 0z"/><path d="m110.709 200.8h85.252c1.381 0 2.5-1.119 2.5-2.5v-44.02l6.789 6.789c.931.932 2.502 1.016 3.54 0l9.33-9.34c.966-.967.984-2.568-.011-3.54l-11.649-11.64c-.94-.95-2.59-.95-3.54 0-.97.97-.97 2.56.01 3.53l9.88 9.88-5.79 5.81-51.92-51.93c-.943-.933-2.594-.945-3.54 0l-51.91 51.92-5.79-5.79 59.471-59.48 35.45 35.45c.949.94 2.59.94 3.529 0 .948-.928 1.028-2.513 0-3.54l-37.21-37.219c-.95-.94-2.6-.94-3.54 0l-63.01 63.01c-.968.989-.976 2.542 0 3.54l9.33 9.34c.939.94 2.59.95 3.54 0l6.789-6.79v44.02c0 1.381 1.119 2.5 2.5 2.5zm45.126-46.167c8.031 1.228 14.227 8.167 14.245 16.527v24.64h-14.245zm37.626 41.167h-18.381v-24.64c-.013-14.609-14.251-25.15-28.261-20.75-1.287.403-2.063 1.787-1.64 3.14.41 1.29 1.83 2.04 3.14 1.63.823-.254 1.663-.444 2.516-.572v41.192h-14.245v-24.64c0-1.27.15-2.54.43-3.78.311-1.34-.529-2.68-1.87-2.99-1.34-.31-2.699.54-3 1.87-.369 1.6-.56 3.25-.56 4.9v24.64h-18.381v-46.522l40.122-40.127 40.13 40.13z"/><path d="m137.38 156.39c-.93 1.01-.87 2.59.14 3.53.46.43 1.061.67 1.69.67.7 0 1.37-.29 1.84-.8.94-1.01.88-2.6-.13-3.54-.981-.9-2.64-.83-3.54.14z"/><path d="m90.702 185.643c-.62-2.675-4.445-2.668-5.064 0-1.864 8.027-4.463 8.886-8.397 10.187-2.369.782-2.375 4.152 0 4.937 6.535 2.159 7.276 5.352 8.397 10.185.623 2.681 4.442 2.68 5.065 0 1.862-8.027 4.603-8.932 8.397-10.185 2.369-.783 2.375-4.153 0-4.937-3.645-1.202-6.492-1.978-8.398-10.187zm-2.48 17.017c-.92-1.552-2.199-3.02-4.07-4.303 1.513-1.038 2.868-2.447 4.028-4.533 1.173 2.112 2.508 3.51 3.888 4.497-1.44 1.011-2.731 2.368-3.846 4.339z"/><path d="m202.146 84.48c-3.645-1.2-6.491-1.977-8.397-10.186-.62-2.675-4.445-2.668-5.064 0-1.864 8.027-4.463 8.886-8.397 10.187-2.369.782-2.375 4.152 0 4.937 6.535 2.159 7.276 5.352 8.397 10.185.623 2.681 4.442 2.68 5.065 0 1.862-8.027 4.603-8.932 8.397-10.185 2.368-.784 2.374-4.154-.001-4.938zm-10.877 6.831c-.92-1.552-2.199-3.02-4.07-4.303 1.513-1.038 2.868-2.447 4.028-4.533 1.173 2.112 2.508 3.51 3.887 4.497-1.439 1.012-2.73 2.368-3.845 4.339z"/><path d="m203.11 108.438c6.535 2.159 7.276 5.352 8.397 10.185.623 2.681 4.442 2.68 5.065 0 1.862-8.027 4.603-8.932 8.397-10.185 2.369-.783 2.375-4.153 0-4.937-3.645-1.2-6.491-1.977-8.397-10.186-.62-2.675-4.445-2.668-5.064 0-1.864 8.027-4.463 8.886-8.397 10.187-2.371.782-2.376 4.152-.001 4.936zm10.939-6.942c1.173 2.112 2.508 3.51 3.888 4.497-1.439 1.011-2.731 2.368-3.846 4.339-.92-1.552-2.199-3.02-4.07-4.303 1.513-1.038 2.868-2.447 4.028-4.533z"/><path d="m241.33 60.02h-178.49v-9.57c0-15.241-12.33-27.84-27.84-27.84-15.308 0-27.83 12.38-27.83 27.84v78.66c0 1.38 1.12 2.5 2.5 2.5s2.5-1.12 2.5-2.5v-78.66c.019-12.57 10.26-22.81 22.83-22.84 12.569.03 22.819 10.27 22.84 22.84v148.63c-5.296-7.584-14.131-12.204-23.771-11.9-8.799.333-16.882 4.743-21.899 11.95v-50.02c0-1.37-1.12-2.49-2.5-2.49s-2.5 1.12-2.5 2.49v65.88.01.01c0 15.314 12.402 27.82 27.83 27.82h122c1.37 0 2.5-1.12 2.5-2.5s-1.13-2.5-2.5-2.5h-122c-9.48 0-18.08-5.97-21.4-14.85-.95-2.54-1.43-5.22-1.43-7.97v-.02c.01-12.35 9.71-22.37 22.09-22.81 12.572-.491 23.549 9.773 23.58 22.81 0 1.381 1.111 2.5 2.5 2.5 1.369 0 2.5-1.097 2.5-2.5v-149.97h178.49c1.37.01 2.5 1.13 2.5 2.5v167.81c0 1.38-1.13 2.5-2.5 2.5h-64.33c-1.38 0-2.5 1.12-2.5 2.5s1.12 2.5 2.5 2.5h64.33c4.13 0 7.5-3.36 7.5-7.5v-167.81c0-4.13-3.37-7.5-7.5-7.5z"/><path d="m167 237.83c-1.38 0-2.5 1.12-2.5 2.5s1.12 2.5 2.5 2.5c1.37 0 2.49-1.12 2.49-2.5s-1.12-2.5-2.49-2.5z"/><circle cx="9.67" cy="139.11" r="2.5"/><circle cx="157.22" cy="30.67" r="2.5"/><path d="m87 32.87 28.28 15c.282.15.776.29 1.17.29h87.05c9.649 0 17.5-7.85 17.5-17.49 0-9.65-7.851-17.5-17.5-17.5-9.829 0-76.496 0-87.05 0-.412 0-.875.131-1.17.29l-28.28 15c-1.778.931-1.764 3.485 0 4.41zm129-2.2c-.01 6.88-5.62 12.48-12.5 12.49h-6.78v-24.99h6.78c6.88.01 12.49 5.62 12.5 12.5zm-24.28-2.5h-24.5c-1.38 0-2.5 1.12-2.5 2.5 0 1.37 1.12 2.5 2.5 2.5h24.5v9.99h-72.77v-9.99h28.27c1.38 0 2.5-1.13 2.5-2.5 0-1.38-1.12-2.5-2.5-2.5h-28.27v-10h72.77zm-77.77 13.34-7.33-3.891v-13.912l7.33-3.887zm-12.33-15.151v8.606l-8.11-4.305z"/></g></g></g></svg>